<svg xmlns="http://www.w3.org/2000/svg" xmlns:xlink="http://www.w3.org/1999/xlink" width="756" height="917" viewBox="0 0 756 917">
  <defs>
    <filter id="Rectangle_38" x="29" y="39" width="699" height="878" filterUnits="userSpaceOnUse">
      <feOffset dy="4" input="SourceAlpha"/>
      <feGaussianBlur stdDeviation="6.5" result="blur"/>
      <feFlood flood-opacity="0.102"/>
      <feComposite operator="in" in2="blur"/>
      <feComposite in="SourceGraphic"/>
    </filter>
    <filter id="Rectangle_37" x="9" y="19" width="739" height="878" filterUnits="userSpaceOnUse">
      <feOffset dy="4" input="SourceAlpha"/>
      <feGaussianBlur stdDeviation="6.5" result="blur-2"/>
      <feFlood flood-opacity="0.102"/>
      <feComposite operator="in" in2="blur-2"/>
      <feComposite in="SourceGraphic"/>
    </filter>
    <filter id="Rectangle_25" x="0" y="0" width="756" height="878" filterUnits="userSpaceOnUse">
      <feOffset dy="4" input="SourceAlpha"/>
      <feGaussianBlur stdDeviation="6.5" result="blur-3"/>
      <feFlood flood-opacity="0.102"/>
      <feComposite operator="in" in2="blur-3"/>
      <feComposite in="SourceGraphic"/>
    </filter>
    <clipPath id="clip-path">
      <rect id="Rectangle_43" data-name="Rectangle 43" width="100.3" height="101.4" transform="translate(197.268 -0.518) rotate(90)"/>
    </clipPath>
  </defs>
  <g id="Group_1892" data-name="Group 1892" transform="translate(-582.5 -461.5)">
    <g transform="matrix(1, 0, 0, 1, 582.5, 461.5)" filter="url(#Rectangle_38)">
      <rect id="Rectangle_38-2" data-name="Rectangle 38" width="660" height="839" rx="10" transform="translate(48.5 54.5)" fill="#fff"/>
    </g>
    <g transform="matrix(1, 0, 0, 1, 582.5, 461.5)" filter="url(#Rectangle_37)">
      <rect id="Rectangle_37-2" data-name="Rectangle 37" width="700" height="839" rx="10" transform="translate(28.5 34.5)" fill="#fff"/>
    </g>
    <g transform="matrix(1, 0, 0, 1, 582.5, 461.5)" filter="url(#Rectangle_25)">
      <rect id="Rectangle_25-2" data-name="Rectangle 25" width="717" height="839" rx="10" transform="translate(19.5 15.5)" fill="#fff"/>
    </g>
    <g id="Group_969" data-name="Group 969" transform="translate(602.518 1221.184) rotate(-90)" opacity="0.26">
      <g id="XMLID_56_">
        <g id="XMLID_58_" clip-path="url(#clip-path)">
          <circle id="XMLID_10_" cx="98.6" cy="98.6" r="98.6" transform="translate(-2.3 -99.1)" fill="none" stroke="#434343" stroke-miterlimit="10" stroke-width="0.704"/>
          <circle id="Ellipse_8" data-name="Ellipse 8" cx="91.5" cy="91.5" r="91.5" transform="translate(4.8 -92)" fill="none" stroke="#434343" stroke-miterlimit="10" stroke-width="0.688"/>
          <circle id="Ellipse_9" data-name="Ellipse 9" cx="84.3" cy="84.3" r="84.3" transform="translate(12 -84.8)" fill="none" stroke="#434343" stroke-miterlimit="10" stroke-width="0.673"/>
          <circle id="Ellipse_10" data-name="Ellipse 10" cx="77.2" cy="77.2" r="77.2" transform="translate(19.1 -77.7)" fill="none" stroke="#434343" stroke-miterlimit="10" stroke-width="0.657"/>
          <circle id="Ellipse_11" data-name="Ellipse 11" cx="70.1" cy="70.1" r="70.1" transform="translate(26.2 -70.6)" fill="none" stroke="#434343" stroke-miterlimit="10" stroke-width="0.641"/>
          <circle id="Ellipse_12" data-name="Ellipse 12" cx="63" cy="63" r="63" transform="translate(33.3 -63.5)" fill="none" stroke="#434343" stroke-miterlimit="10" stroke-width="0.625"/>
          <circle id="Ellipse_13" data-name="Ellipse 13" cx="55.8" cy="55.8" r="55.8" transform="translate(40.5 -56.3)" fill="none" stroke="#434343" stroke-miterlimit="10" stroke-width="0.609"/>
          <circle id="Ellipse_14" data-name="Ellipse 14" cx="48.7" cy="48.7" r="48.7" transform="translate(47.308 47.922) rotate(-89.636)" fill="none" stroke="#434343" stroke-miterlimit="10" stroke-width="0.593"/>
          <circle id="Ellipse_15" data-name="Ellipse 15" cx="41.6" cy="41.6" r="41.6" transform="translate(54.614 41.03) rotate(-89.858)" fill="none" stroke="#434343" stroke-miterlimit="10" stroke-width="0.577"/>
          <circle id="Ellipse_16" data-name="Ellipse 16" cx="34.5" cy="34.5" r="34.5" transform="translate(61.745 -34.945) rotate(-0.091)" fill="none" stroke="#434343" stroke-miterlimit="10" stroke-width="0.562"/>
          <circle id="Ellipse_17" data-name="Ellipse 17" cx="27.3" cy="27.3" r="27.3" transform="matrix(1, -0.006, 0.006, 1, 68.842, -27.64)" fill="none" stroke="#434343" stroke-miterlimit="10" stroke-width="0.546"/>
          <circle id="Ellipse_18" data-name="Ellipse 18" cx="20.2" cy="20.2" r="20.2" transform="translate(75.889 -20.489) rotate(-0.592)" fill="none" stroke="#434343" stroke-miterlimit="10" stroke-width="0.53"/>
          <circle id="Ellipse_19" data-name="Ellipse 19" cx="13.1" cy="13.1" r="13.1" transform="translate(83.005 -13.401) rotate(-0.862)" fill="none" stroke="#434343" stroke-miterlimit="10" stroke-width="0.514"/>
          <circle id="XMLID_7_" cx="6" cy="6" r="6" transform="translate(90.181 -6.379) rotate(-1.146)" fill="none" stroke="#434343" stroke-miterlimit="10" stroke-width="0.498"/>
        </g>
      </g>
      <path id="XMLID_122_" d="M-2.6-.2h0A98.628,98.628,0,0,0,96,98.5V-.2Z" fill="#434343"/>
    </g>
  </g>
</svg>
