<svg xmlns="http://www.w3.org/2000/svg" width="20" height="20" viewBox="0 0 20 20">
  <g id="dollar-coin" transform="translate(-121.88 -60.94)">
    <path id="Path_53" data-name="Path 53" d="M131.88,60.94a10,10,0,1,0,10,10A10.012,10.012,0,0,0,131.88,60.94Zm.773,15.2v1.138a.773.773,0,0,1-1.546,0V76.141a3.887,3.887,0,0,1-2.572-.645.773.773,0,0,1,.881-1.27,1.98,1.98,0,0,0,1.1.369h2.595a1.441,1.441,0,0,0,0-2.882h-2.465a2.99,2.99,0,0,1-2.987-2.987c0-1.479,1-2.987,3.446-2.987V64.6a.773.773,0,1,1,1.546,0v1.138a3.846,3.846,0,0,1,1.632.248h0a3.587,3.587,0,0,1,1.3.89h0a.773.773,0,0,1-1.139,1.045,1.98,1.98,0,0,0-1.416-.638h-2.379a1.441,1.441,0,0,0,0,2.882h2.465a2.99,2.99,0,0,1,2.987,2.987c0,1.583-1.108,2.987-3.446,2.987Z" fill="#ff8000"/>
  </g>
</svg>
