<svg xmlns="http://www.w3.org/2000/svg" width="14.999" height="18" viewBox="0 0 14.999 18">
  <g id="notification" transform="translate(-42.675)">
    <g id="Group_20" data-name="Group 20" transform="translate(42.675)">
      <g id="Group_19" data-name="Group 19" transform="translate(0)">
        <path id="Path_66" data-name="Path 66" d="M57.621,15.182l-1.288-2.147a6.376,6.376,0,0,1-.909-3.28V7.875a5.257,5.257,0,0,0-3.75-5.029V1.5a1.5,1.5,0,1,0-3,0V2.846a5.257,5.257,0,0,0-3.75,5.029v1.88a6.38,6.38,0,0,1-.908,3.28l-1.288,2.146a.376.376,0,0,0,.321.569H57.3a.375.375,0,0,0,.322-.568Z" transform="translate(-42.675)" fill="#171717"/>
      </g>
    </g>
    <g id="Group_22" data-name="Group 22" transform="translate(47.813 16.5)">
      <g id="Group_21" data-name="Group 21" transform="translate(0)">
        <path id="Path_67" data-name="Path 67" d="M188.815,469.333a2.609,2.609,0,0,0,4.723,0Z" transform="translate(-188.815 -469.333)" fill="#171717"/>
      </g>
    </g>
  </g>
</svg>
