<svg xmlns="http://www.w3.org/2000/svg" width="14" height="14" viewBox="0 0 14 14">
  <g id="Icon" transform="translate(-0.333 -0.333)">
    <circle id="Ellipse_5" data-name="Ellipse 5" cx="7" cy="7" r="7" transform="translate(0.333 0.333)" fill="#1652f0"/>
    <path id="Path_56" data-name="Path 56" d="M289.617,261.958a3.13,3.13,0,0,0,1.083-.208l.708,1.083a4.182,4.182,0,0,1-2,.5,3.51,3.51,0,0,1-3.708-3.667A3.589,3.589,0,0,1,289.45,256a3.893,3.893,0,0,1,1.875.458l-.666,1.124a3.136,3.136,0,0,0-1.083-.208,2.132,2.132,0,0,0-2.25,2.292A2.165,2.165,0,0,0,289.617,261.958Z" transform="translate(-281.608 -252.333)" fill="#fff"/>
  </g>
</svg>
