<svg xmlns="http://www.w3.org/2000/svg" width="19.36" height="16.146" viewBox="0 0 19.36 16.146">
  <g id="kraken" transform="translate(-0.001 -0.415)">
    <path id="Path_57" data-name="Path 57" d="M199.962,316.477a.584.584,0,0,0-.406-.142,1.042,1.042,0,0,0-.213.024,1.815,1.815,0,0,0-1.3,1.4.7.7,0,0,0,.164.609c.323.3.994.116,1.47-.4S200.283,316.774,199.962,316.477Zm0,0" transform="translate(-190.536 -303.97)"/>
    <path id="Path_58" data-name="Path 58" d="M231.529,142.938c.046-.065-.018-.292-.263-.464s-.479-.157-.525-.091.018.292.262.464a.7.7,0,0,0,.377.137A.2.2,0,0,0,231.529,142.938Zm0,0" transform="translate(-221.999 -136.553)"/>
    <path id="Path_59" data-name="Path 59" d="M425.785,112.383c.138.04.43-.2.558-.659a1.2,1.2,0,0,0,.02-.632c-.034-.119-.093-.2-.154-.22a.107.107,0,0,0-.031,0c-.147,0-.409.24-.527.663a1.207,1.207,0,0,0-.019.632C425.667,112.28,425.725,112.366,425.785,112.383Zm0,0" transform="translate(-409.5 -106.274)"/>
    <path id="Path_60" data-name="Path 60" d="M272.669,216.348c.221.047.566-.327.678-.876a1.5,1.5,0,0,0-.032-.785c-.059-.163-.149-.268-.246-.288a.407.407,0,0,0-.34.167,1.629,1.629,0,0,0-.308,1.494C272.484,216.224,272.572,216.328,272.669,216.348Zm0,0" transform="translate(-262.054 -205.89)"/>
    <path id="Path_61" data-name="Path 61" d="M406.23,7.571a6.107,6.107,0,0,1,.163.878,5.772,5.772,0,0,1,1.725,1.122,6.977,6.977,0,0,0,.628-1.12,8.575,8.575,0,0,0,.762-4.707c-.1-.7-.584-3-2.543-3.3a.912.912,0,0,0-.526.019,1.052,1.052,0,0,0,.206.2c.051.043.1.084.142.125a2.394,2.394,0,0,1,.479.617,4.331,4.331,0,0,1,.387,1.42,5.6,5.6,0,0,1,.022,1.135.7.7,0,0,1,.072.01.907.907,0,0,1,.6.665,1.84,1.84,0,0,1-.019.984,1.38,1.38,0,0,1-1.151,1.134.652.652,0,0,1-.352-.094,7.967,7.967,0,0,1-.6.908Zm0,0" transform="translate(-390.864)"/>
    <path id="Path_62" data-name="Path 62" d="M374.2,326.9a.214.214,0,0,0-.09-.016c-.069.138-.141.274-.216.407-.129.226-.242.44-.346.646a.254.254,0,0,0,.125.143c.172.076.467-.084.621-.431S374.371,326.973,374.2,326.9Zm0,0" transform="translate(-359.421 -314.12)"/>
    <path id="Path_63" data-name="Path 63" d="M143.607,198.048l.1.023a6.964,6.964,0,0,1,1.023.333l.184.074c.012-.132.019-.27.019-.42a1.658,1.658,0,0,0-.332-.961,8.885,8.885,0,0,0-2.148.3,1.378,1.378,0,0,0-.79.616,1.014,1.014,0,0,0,.01.834,1.2,1.2,0,0,0,.363.509.268.268,0,0,0,.083.039.233.233,0,0,0,.01-.074,1.539,1.539,0,0,0-.023-.207,1.05,1.05,0,0,1,.135-.868c.366-.442.993-.289,1.368-.2Zm0,0" transform="translate(-136.22 -189.244)"/>
    <path id="Path_64" data-name="Path 64" d="M19.216,93.675a.323.323,0,0,0-.447.091c-.016.024-.034.045-.051.068V91.65a6.788,6.788,0,0,0-3.146-3.9,7.952,7.952,0,0,1-.606,2.987.761.761,0,0,1,.078.026,1.173,1.173,0,0,1,.423,1.6,1.3,1.3,0,0,1-1.115.835A.874.874,0,0,1,14,93.126a.82.82,0,0,1-.168-.1,8.534,8.534,0,0,0-.5,1.447,1.608,1.608,0,0,1-.611-.216,11.125,11.125,0,0,1,1.194-2.832c.089-.156.177-.326.262-.506a7.527,7.527,0,0,0,.749-3.6.309.309,0,0,1-.006-.076,5.275,5.275,0,0,0-.181-1.03.3.3,0,0,1-.03-.1,4.978,4.978,0,0,0-1.989-2.654l-.039-.027-.139-.094a7.721,7.721,0,0,0-3.87-1.255,8.769,8.769,0,0,0-4.059.876,3.683,3.683,0,0,1-3.125.212,4.566,4.566,0,0,0,.694.64,5.517,5.517,0,0,0,3.611,1.085H5.91a3.772,3.772,0,0,1,2.3.479,2.914,2.914,0,0,1,.539.491c.007.007.012.015.018.022a2.352,2.352,0,0,1,.586,1.5c0,1.758-.745,2.5-2.416,3.5A4.453,4.453,0,0,0,5.65,92.059a5.978,5.978,0,0,0-.941,2,1.606,1.606,0,0,0,.231.178,1.613,1.613,0,0,1-.623-.734.487.487,0,0,0-.449-.3.475.475,0,0,0-.141.021.471.471,0,0,1,.14-.021v0a.323.323,0,1,0-.445.3s0,0,0,.005a1.614,1.614,0,0,1-.364.527.966.966,0,1,1,1.4-1.167,6.17,6.17,0,0,1,.387-.749,2.843,2.843,0,0,1-1.521-.623c-.936-.936-.523-1.872.006-2.667a1.77,1.77,0,0,0,.038-1.631,1.573,1.573,0,0,1-.14.523,1.475,1.475,0,0,1-.748.625,2.546,2.546,0,0,0-.267.145,3.309,3.309,0,0,0-1.149,2.637A4.787,4.787,0,0,0,1.243,92.6a3.591,3.591,0,0,0,.323.761,12.344,12.344,0,0,0,.692,1.091,1.6,1.6,0,0,0,.43-.155,1.6,1.6,0,0,1-2.1-.531.323.323,0,0,0-.539.355,2.259,2.259,0,0,0,3.82-.082,2.259,2.259,0,0,0,3.873,0,2.259,2.259,0,0,0,3.873,0,2.26,2.26,0,0,0,3.873,0,2.26,2.26,0,0,0,3.82.082.323.323,0,0,0-.092-.446Zm-16.336.5a1.636,1.636,0,0,1-.191.12A1.6,1.6,0,0,0,2.88,94.177Zm0,0a1.6,1.6,0,0,0,.173-.146,1.62,1.62,0,0,1-.173.145Zm10.871-8.056a.323.323,0,0,1,.42.18c.687,1.719-.284,4.023-.326,4.121a.323.323,0,1,1-.594-.254c.009-.021.907-2.158.32-3.626a.323.323,0,0,1,.18-.42Zm-2.123-2.062a.323.323,0,0,1,.408-.2,2.522,2.522,0,0,1,1.5,1.5.323.323,0,1,1-.613.205,1.9,1.9,0,0,0-1.087-1.088.323.323,0,0,1-.2-.408Zm-.482,2.392a1.021,1.021,0,0,1,.722.7,2.125,2.125,0,0,1,.058,1.136c-.169.82-.71,1.4-1.274,1.4a.825.825,0,0,1-.168-.017,1.02,1.02,0,0,1-.722-.7,2.265,2.265,0,0,1,.444-2.157,1.019,1.019,0,0,1,.94-.357ZM8.631,85.4a1.016,1.016,0,0,1-.419-1.364,1.014,1.014,0,0,1,1.425-.065,1.014,1.014,0,0,1,.418,1.364.8.8,0,0,1-.671.319H9.369a1.337,1.337,0,0,1-.737-.255ZM5.525,94.463a1.6,1.6,0,0,0,.28.027A1.6,1.6,0,0,1,5.525,94.463Zm-.561-.213a1.582,1.582,0,0,0,.217.111A1.582,1.582,0,0,1,4.964,94.25Zm.286.137a1.583,1.583,0,0,0,.2.058A1.536,1.536,0,0,1,5.25,94.388ZM7.741,93.2a.487.487,0,0,0-.445.3.768.768,0,0,1-.065-.049,1.318,1.318,0,0,1-.364-1.171,2.456,2.456,0,0,1,1.8-1.944,1.318,1.318,0,0,1,1.194.276,1.729,1.729,0,0,1-.253,2.407,2.271,2.271,0,0,1-1.294.728,1.647,1.647,0,0,1-.129-.24.488.488,0,0,0-.449-.3Zm.578.543a1.621,1.621,0,0,0,.233.284A1.621,1.621,0,0,1,8.319,93.744Zm.26.312c.032.03.068.057.1.085C8.647,94.114,8.612,94.087,8.579,94.056Zm.874.417c-.026,0-.051-.01-.076-.015C9.4,94.464,9.427,94.47,9.454,94.473Zm-.214-.046c-.032-.009-.061-.019-.091-.03.03.011.06.021.091.03Zm-.2-.073c-.032-.014-.065-.029-.1-.046.032.016.064.032.1.046Zm-.187-.1c-.032-.02-.067-.041-.1-.064a1.134,1.134,0,0,0,.1.064Zm3.214-.754a1.594,1.594,0,0,0,.118.226,1.652,1.652,0,0,1-.118-.226Zm.14.257a1.624,1.624,0,0,0,.129.173,1.627,1.627,0,0,1-.129-.173Zm.143.187a1.658,1.658,0,0,0,.17.165,1.631,1.631,0,0,1-.171-.165Zm.375.31a1.578,1.578,0,0,1-.2-.145,1.615,1.615,0,0,0,.2.145Zm5.736-.147a1.615,1.615,0,0,0,.258-.275A1.6,1.6,0,0,1,18.459,94.11Zm-.839.368c.03,0,.06-.011.09-.016C17.679,94.467,17.65,94.474,17.62,94.478Zm.187-.034c.041-.01.08-.023.12-.036-.04.013-.079.027-.12.036Zm.179-.055c.047-.018.092-.038.137-.06-.045.022-.091.043-.138.06Zm.169-.075a1.593,1.593,0,0,0,.146-.085c-.047.031-.1.059-.146.085Zm.158-.093a1.6,1.6,0,0,0,.145-.109,1.654,1.654,0,0,1-.145.109Zm0,0" transform="translate(0 -78.575)"/>
  </g>
</svg>
