<svg xmlns="http://www.w3.org/2000/svg" width="281" height="62.133" viewBox="0 0 281 62.133">
  <g id="Group_1892" data-name="Group 1892" transform="translate(-35 -56)">
    <g id="cointrendz_logo" transform="translate(35 56)">
      <path id="Path_1" data-name="Path 1" d="M-129.189-103.4c8.23-.217,15.161-3.115,20.258-9.746,1.083-1.416,1.849-3.1,2.8-4.631a9.043,9.043,0,0,1,1.216-1.633,1.278,1.278,0,0,1,1.516-.233,1.389,1.389,0,0,1,.833,1.349,4.113,4.113,0,0,1-.283,1.633c-4.365,9.38-11.229,15.894-21.491,18.259-7.247,1.666-14.094.167-20.408-3.6-8.18-4.881-12.811-12.145-13.578-21.691-.766-9.563,1.966-17.976,8.613-24.99A29.2,29.2,0,0,1-117.96-155.6a1.515,1.515,0,0,1,1.116,1.666,4.735,4.735,0,0,1-1.5,3.332,1.84,1.84,0,0,1-2.116.4,26.024,26.024,0,0,0-19.176-.183,23.485,23.485,0,0,0-14.877,23.69,24.921,24.921,0,0,0,7.3,15.427,24.386,24.386,0,0,0,15.227,7.68C-131.038-103.467-130.105-103.45-129.189-103.4Z" transform="translate(158.452 159.86)" fill="#fff"/>
      <path id="Path_2" data-name="Path 2" d="M107.317-171h8.813v.683q0,18.717-.017,37.418a2.43,2.43,0,0,1-.283.916c-.2.45-.466.883-.683,1.333a23.975,23.975,0,0,1-7.847,9.33C107.317-137.913,107.317-154.423,107.317-171Z" transform="translate(-63.026 171)" fill="#ff8000"/>
      <path id="Path_3" data-name="Path 3" d="M-25.854-33V-1.713a24.943,24.943,0,0,1-3-.2c-1.816-.333-3.6-.816-5.4-1.216-.35-.083-.45-.267-.45-.616.017-9.613,0-19.242.017-28.855,0-.117.017-.233.033-.4Z" transform="translate(55.317 55.991)" fill="#ff8000"/>
      <path id="Path_4" data-name="Path 4" d="M45.13,38.017v.65c0,5.115,0,10.246.017,15.36a.823.823,0,0,1-.566.883,26.791,26.791,0,0,1-8.28,2.332V38C39.215,38.017,42.131,38.017,45.13,38.017Z" transform="translate(-3.854 -3.181)" fill="#fff"/>
      <path id="Path_5" data-name="Path 5" d="M-97.613,56.7h8.746V70.728a3.337,3.337,0,0,1-.433-.167,26.178,26.178,0,0,1-8.063-6.2,1.116,1.116,0,0,1-.3-.65c-.017-2.266-.017-4.531,0-6.814A1.724,1.724,0,0,1-97.613,56.7Z" transform="translate(107.8 -18.765)" fill="#fff"/>
    </g>
    <text id="CryptoAlert" transform="translate(105 98)" fill="#fff" font-size="35" font-family="Poppins-Black, Poppins" letter-spacing="-0.011em" font-weight="800"><tspan x="0" y="0">Crypto</tspan><tspan y="0" fill="#ff8000" font-family="Poppins" font-weight="400">Alert</tspan></text>
  </g>
</svg>
