<svg xmlns="http://www.w3.org/2000/svg" width="34.399" height="34.398" viewBox="0 0 34.399 34.398">
  <g id="_300332" data-name="300332" transform="translate(0)">
    <circle id="Ellipse_95" data-name="Ellipse 95" cx="11.286" cy="11.286" r="11.286" transform="translate(5.913 5.913)" fill="#fee187"/>
    <g id="Group_400" data-name="Group 400" transform="translate(0)">
      <path id="Path_413" data-name="Path 413" d="M17.2,0a.932.932,0,0,0,0,1.865A15.271,15.271,0,0,1,27.357,5.723l-2.2,2.2a12.208,12.208,0,0,0-15.907,0L6.385,5.067,6.37,5.053l-.014-.015a.932.932,0,0,0-1.319,0A17.2,17.2,0,0,0,29.361,29.361,17.2,17.2,0,0,0,17.2,0Zm7.326,9.882a.932.932,0,0,0,1.318,0,.95.95,0,0,0,.075-.085l.006-.006,2.752-2.752A15.271,15.271,0,0,1,32.5,16.267H31.467a.932.932,0,1,0,0,1.865h1.038a15.2,15.2,0,0,1-3.824,9.231l-2.212-2.212A12.165,12.165,0,0,0,29.418,17.2a.932.932,0,0,0-1.865,0,10.354,10.354,0,1,1-3.028-7.317ZM17.2,30.445a.932.932,0,0,0-.932.932V32.5a15.272,15.272,0,0,1-9.226-3.829l2.207-2.207a12.194,12.194,0,0,0,15.9,0l2.212,2.212a15.2,15.2,0,0,1-9.231,3.824V31.378A.932.932,0,0,0,17.2,30.445ZM1.894,18.132H5.016a12.166,12.166,0,0,0,2.914,7.019L5.722,27.358A15.272,15.272,0,0,1,1.894,18.132Zm3.823-11.1L7.929,9.248a12.167,12.167,0,0,0-2.914,7.019H1.893A15.2,15.2,0,0,1,5.717,7.036Z" transform="translate(0)" fill="#ffc61b"/>
      <path id="Path_414" data-name="Path 414" d="M179.956,172.715v-.742a.333.333,0,0,0-.333-.333h-.1l.282-1.309a.333.333,0,0,0-.255-.4l-1.024-.221a.333.333,0,0,0-.4.255l-.36,1.67h-2.429l-.408-1.751a.333.333,0,0,0-.324-.257H173.5a.333.333,0,0,0-.324.257l-.408,1.751H170.34l-.36-1.67a.333.333,0,0,0-.4-.255l-1.024.221a.333.333,0,0,0-.255.4l.282,1.309h-.1a.333.333,0,0,0-.333.333v.742a.333.333,0,0,0,.333.333h.405l.421,1.951h-.826a.333.333,0,0,0-.333.333v.742a.333.333,0,0,0,.333.333h1.129l.982,4.558a.333.333,0,0,0,.323.263l1.106.009a.333.333,0,0,0,.327-.257l1.065-4.572h1.273l1.065,4.572a.333.333,0,0,0,.327.257l1.106-.009a.333.333,0,0,0,.323-.263l.982-4.558h1.129a.333.333,0,0,0,.333-.333v-.742a.333.333,0,0,0-.333-.333H178.8l.421-1.951h.405A.333.333,0,0,0,179.956,172.715Zm-3.215,3.692-.14.649-.151-.649ZM176.122,175l-.455-1.951h1.8L177.044,175Zm-1.759,0h-.617l.309-1.325Zm-2.7,1.408-.151.649-.14-.649ZM171.064,175l-.421-1.951h1.8L171.986,175Z" transform="translate(-156.855 -158.235)" fill="#ffc61b"/>
    </g>
  </g>
</svg>
