<svg id="cancel" xmlns="http://www.w3.org/2000/svg" width="20.412" height="20.412" viewBox="0 0 20.412 20.412">
  <circle id="Ellipse_7" data-name="Ellipse 7" cx="10.206" cy="10.206" r="10.206" transform="translate(0 0)" fill="#e24c4b"/>
  <path id="Path_70" data-name="Path 70" d="M126.934,126.934a1,1,0,0,1-1.4,0l-3.253-3.253-3.253,3.253a.992.992,0,0,1-1.4-1.4l3.253-3.253-3.253-3.253a.992.992,0,1,1,1.4-1.4l3.253,3.253,3.253-3.253a.992.992,0,1,1,1.4,1.4l-3.253,3.253,3.253,3.253A1,1,0,0,1,126.934,126.934Z" transform="translate(-112.072 -112.072)" fill="#fff"/>
</svg>
