<svg id="dollar" xmlns="http://www.w3.org/2000/svg" width="35" height="35" viewBox="0 0 35 35">
  <path id="Path_407" data-name="Path 407" d="M17.5,0A17.5,17.5,0,1,0,35,17.5,17.5,17.5,0,0,0,17.5,0Z" transform="translate(0)" fill="#fcd249"/>
  <path id="Path_408" data-name="Path 408" d="M6.773,24.425a17.287,17.287,0,0,1,5.644-12.772,17.425,17.425,0,0,0,5.3,34.112,17.8,17.8,0,0,0,12.072-4.681C18.407,44.594,6.773,36.215,6.773,24.425Z" transform="translate(0 -10.765)" fill="#f9b938"/>
  <ellipse id="Ellipse_94" data-name="Ellipse 94" cx="13.587" cy="13.587" rx="13.587" ry="13.587" transform="translate(3.913 3.913)" fill="#ed7524"/>
  <path id="Path_409" data-name="Path 409" d="M71.436,133.44a19.016,19.016,0,0,1-16.526-18.557,18.105,18.105,0,0,1,1.263-6.656,14.7,14.7,0,0,0-4.805,10.837C51.367,129.144,61.471,136.315,71.436,133.44Z" transform="translate(-47.454 -102.983)" fill="#e25d23"/>
  <path id="Path_410" data-name="Path 410" d="M96.586,107.564a10.979,10.979,0,1,1,10.979-10.979A10.979,10.979,0,0,1,96.586,107.564Z" transform="translate(-79.086 -79.084)" fill="#fc934c"/>
  <path id="Path_411" data-name="Path 411" d="M86.549,192.187a12.986,12.986,0,0,0,10.312,17.726,19.5,19.5,0,0,1-10.319-17.207C86.541,192.532,86.544,192.359,86.549,192.187Z" transform="translate(-80.026 -180.3)" fill="#f98935"/>
  <path id="Path_412" data-name="Path 412" d="M206.713,152.363c-.171-1.552-1.473-2.728-3.537-3.243V145.68a5.426,5.426,0,0,1,1.82.774.981.981,0,0,0,1.17-1.575,7.3,7.3,0,0,0-2.99-1.2v-.831a.981.981,0,1,0-1.962,0v.844a5.792,5.792,0,0,0-1.09.3,3.437,3.437,0,0,0-2.447,3.5c.172,1.55,1.475,2.725,3.537,3.237v3.44a5.429,5.429,0,0,1-1.819-.776.981.981,0,0,0-1.167,1.577,7.3,7.3,0,0,0,2.986,1.2V157a.981.981,0,1,0,1.962,0v-.843a5.788,5.788,0,0,0,1.094-.3A3.434,3.434,0,0,0,206.713,152.363Zm-7.086-5.088c-.064-.573.409-1.142,1.205-1.449a3.753,3.753,0,0,1,.382-.124v2.986C200.136,148.316,199.678,147.736,199.626,147.276Zm3.935,6.748a3.741,3.741,0,0,1-.386.126v-2.987c1.078.373,1.536.954,1.587,1.416C204.826,153.15,204.354,153.717,203.562,154.024Z" transform="translate(-184.615 -132.95)" fill="#aa541a"/>
</svg>
