<svg xmlns="http://www.w3.org/2000/svg" width="18.572" height="22.012" viewBox="0 0 18.572 22.012">
  <path id="Path_364" data-name="Path 364" d="M58.042,3.564,49.616.066a.86.86,0,0,0-.659,0l-8.426,3.5a.86.86,0,0,0-.53.794V8.611a14.4,14.4,0,0,0,8.961,13.337.86.86,0,0,0,.65,0A14.4,14.4,0,0,0,58.572,8.611V4.358A.86.86,0,0,0,58.042,3.564Zm-1.19,5.047a12.683,12.683,0,0,1-7.567,11.607A12.683,12.683,0,0,1,41.72,8.611V4.932l7.567-3.142,7.567,3.142Zm-8.517,2.9,3.7-3.7A.86.86,0,1,1,53.247,9.03l-4.3,4.3a.86.86,0,0,1-1.216,0l-2.4-2.4a.86.86,0,1,1,1.216-1.216Z" transform="translate(-40 0)" fill="#00b9ff"/>
</svg>
