<svg xmlns="http://www.w3.org/2000/svg" width="29.948" height="19.621" viewBox="0 0 29.948 19.621">
  <g id="united-states" transform="translate(0 -88.275)">
    <path id="Path_6" data-name="Path 6" d="M27.7,88.276H2.243A2.243,2.243,0,0,0,0,90.519v15.135A2.243,2.243,0,0,0,2.243,107.9H27.7a2.243,2.243,0,0,0,2.243-2.243V90.519A2.243,2.243,0,0,0,27.7,88.276Z" transform="translate(0 -0.001)" fill="#f5f5f5"/>
    <g id="Group_1" data-name="Group 1" transform="translate(0 88.275)">
      <path id="Path_7" data-name="Path 7" d="M2.109,89.785h29.7a2.243,2.243,0,0,0-2.119-1.509H4.228A2.243,2.243,0,0,0,2.109,89.785Z" transform="translate(-1.986 -88.276)" fill="#ff4b55"/>
      <rect id="Rectangle_2" data-name="Rectangle 2" width="29.948" height="1.509" transform="translate(0 6.037)" fill="#ff4b55"/>
      <rect id="Rectangle_3" data-name="Rectangle 3" width="29.948" height="1.509" transform="translate(0 3.018)" fill="#ff4b55"/>
      <path id="Path_8" data-name="Path 8" d="M0,244.091a.516.516,0,0,0,.516.516H29.948V243.1H0Z" transform="translate(0 -234.042)" fill="#ff4b55"/>
      <rect id="Rectangle_4" data-name="Rectangle 4" width="29.948" height="1.509" transform="translate(0 15.093)" fill="#ff4b55"/>
      <path id="Path_9" data-name="Path 9" d="M31.81,397.92H2.109a2.243,2.243,0,0,0,2.119,1.509H29.69A2.243,2.243,0,0,0,31.81,397.92Z" transform="translate(-1.986 -379.809)" fill="#ff4b55"/>
      <rect id="Rectangle_5" data-name="Rectangle 5" width="29.948" height="1.509" transform="translate(0 12.075)" fill="#ff4b55"/>
    </g>
    <path id="Path_10" data-name="Path 10" d="M.516,98.84H13.425a.516.516,0,0,0,.516-.516V88.791a.516.516,0,0,0-.516-.516H2.243A2.243,2.243,0,0,0,0,90.518v7.806A.516.516,0,0,0,.516,98.84Z" fill="#41479b"/>
    <g id="Group_2" data-name="Group 2" transform="translate(0.834 89.427)">
      <path id="Path_11" data-name="Path 11" d="M14.869,108l.114.343.361,0a.049.049,0,0,1,.029.088l-.291.215.109.344a.049.049,0,0,1-.075.054l-.294-.21-.294.21a.049.049,0,0,1-.075-.054l.109-.344-.291-.215a.049.049,0,0,1,.029-.088l.361,0,.114-.343A.049.049,0,0,1,14.869,108Z" transform="translate(-14.253 -107.968)" fill="#f5f5f5"/>
      <path id="Path_12" data-name="Path 12" d="M14.869,138.656l.114.343.361,0a.049.049,0,0,1,.029.088l-.291.215.109.344a.049.049,0,0,1-.075.054l-.294-.21-.294.21a.049.049,0,0,1-.075-.054l.109-.344-.291-.215A.049.049,0,0,1,14.3,139l.361,0,.114-.343A.049.049,0,0,1,14.869,138.656Z" transform="translate(-14.253 -136.83)" fill="#f5f5f5"/>
      <path id="Path_13" data-name="Path 13" d="M14.869,169.31l.114.343.361,0a.049.049,0,0,1,.029.088l-.291.215.109.344a.049.049,0,0,1-.075.054l-.294-.21-.294.21a.049.049,0,0,1-.075-.054l.109-.344-.291-.215a.049.049,0,0,1,.029-.088l.361,0,.114-.343A.049.049,0,0,1,14.869,169.31Z" transform="translate(-14.253 -165.691)" fill="#f5f5f5"/>
      <path id="Path_14" data-name="Path 14" d="M14.869,199.964l.114.343.361,0a.049.049,0,0,1,.029.088l-.291.215.109.344a.049.049,0,0,1-.075.054l-.294-.21-.294.21a.049.049,0,0,1-.075-.054l.109-.344-.291-.215a.049.049,0,0,1,.029-.088l.361,0,.114-.343A.049.049,0,0,1,14.869,199.964Z" transform="translate(-14.253 -194.552)" fill="#f5f5f5"/>
      <path id="Path_15" data-name="Path 15" d="M14.869,230.619l.114.343.361,0a.049.049,0,0,1,.029.088l-.291.215.109.344a.049.049,0,0,1-.075.054l-.294-.21-.294.21a.049.049,0,0,1-.075-.054l.109-.344-.291-.215a.049.049,0,0,1,.029-.088l.361,0,.114-.343A.049.049,0,0,1,14.869,230.619Z" transform="translate(-14.253 -223.414)" fill="#f5f5f5"/>
      <path id="Path_16" data-name="Path 16" d="M38.662,123.031l.114.343.361,0a.049.049,0,0,1,.029.088l-.291.215.109.344a.049.049,0,0,1-.075.054l-.294-.21-.294.21a.049.049,0,0,1-.075-.054l.109-.344-.291-.215a.049.049,0,0,1,.029-.088l.361,0,.114-.343A.049.049,0,0,1,38.662,123.031Z" transform="translate(-36.654 -122.118)" fill="#f5f5f5"/>
      <path id="Path_17" data-name="Path 17" d="M38.662,153.685l.114.343.361,0a.049.049,0,0,1,.029.088l-.291.215.109.344a.049.049,0,0,1-.075.054l-.294-.21-.294.21a.049.049,0,0,1-.075-.054l.109-.344-.291-.215a.049.049,0,0,1,.029-.088l.361,0,.114-.343A.049.049,0,0,1,38.662,153.685Z" transform="translate(-36.654 -150.98)" fill="#f5f5f5"/>
      <path id="Path_18" data-name="Path 18" d="M38.662,184.339l.114.343.361,0a.049.049,0,0,1,.029.088l-.291.215.109.344a.049.049,0,0,1-.075.054l-.294-.21-.294.21a.049.049,0,0,1-.075-.054l.109-.344-.291-.215a.049.049,0,0,1,.029-.088l.361,0,.114-.343A.049.049,0,0,1,38.662,184.339Z" transform="translate(-36.654 -179.841)" fill="#f5f5f5"/>
      <path id="Path_19" data-name="Path 19" d="M38.662,214.994l.114.343.361,0a.049.049,0,0,1,.029.088l-.291.215.109.344a.049.049,0,0,1-.075.054l-.294-.21-.294.21a.049.049,0,0,1-.075-.054l.109-.344-.291-.215a.049.049,0,0,1,.029-.088l.361,0,.114-.343A.049.049,0,0,1,38.662,214.994Z" transform="translate(-36.654 -208.702)" fill="#f5f5f5"/>
      <path id="Path_20" data-name="Path 20" d="M62.455,108l.114.343.361,0a.049.049,0,0,1,.029.088l-.291.215.109.344a.049.049,0,0,1-.075.054l-.294-.21-.294.21a.049.049,0,0,1-.075-.054l.109-.344-.291-.215a.049.049,0,0,1,.029-.088l.361,0,.114-.343A.049.049,0,0,1,62.455,108Z" transform="translate(-59.055 -107.968)" fill="#f5f5f5"/>
      <path id="Path_21" data-name="Path 21" d="M62.455,138.656l.114.343.361,0a.049.049,0,0,1,.029.088l-.291.215.109.344a.049.049,0,0,1-.075.054l-.294-.21-.294.21a.049.049,0,0,1-.075-.054l.109-.344-.291-.215a.049.049,0,0,1,.029-.088l.361,0,.114-.343A.049.049,0,0,1,62.455,138.656Z" transform="translate(-59.055 -136.829)" fill="#f5f5f5"/>
      <path id="Path_22" data-name="Path 22" d="M62.455,169.31l.114.343.361,0a.049.049,0,0,1,.029.088l-.291.215.109.344a.049.049,0,0,1-.075.054l-.294-.21-.294.21a.049.049,0,0,1-.075-.054l.109-.344-.291-.215a.049.049,0,0,1,.029-.088l.361,0,.114-.343A.049.049,0,0,1,62.455,169.31Z" transform="translate(-59.055 -165.691)" fill="#f5f5f5"/>
      <path id="Path_23" data-name="Path 23" d="M62.455,199.964l.114.343.361,0a.049.049,0,0,1,.029.088l-.291.215.109.344a.049.049,0,0,1-.075.054l-.294-.21-.294.21a.049.049,0,0,1-.075-.054l.109-.344-.291-.215a.049.049,0,0,1,.029-.088l.361,0,.114-.343A.049.049,0,0,1,62.455,199.964Z" transform="translate(-59.055 -194.552)" fill="#f5f5f5"/>
      <path id="Path_24" data-name="Path 24" d="M62.455,230.619l.114.343.361,0a.049.049,0,0,1,.029.088l-.291.215.109.344a.049.049,0,0,1-.075.054l-.294-.21-.294.21a.049.049,0,0,1-.075-.054l.109-.344-.291-.215a.049.049,0,0,1,.029-.088l.361,0,.114-.343A.049.049,0,0,1,62.455,230.619Z" transform="translate(-59.055 -223.413)" fill="#f5f5f5"/>
      <path id="Path_25" data-name="Path 25" d="M86.249,123.031l.114.343.361,0a.049.049,0,0,1,.029.088l-.291.215.109.344a.049.049,0,0,1-.075.054l-.294-.21-.294.21a.049.049,0,0,1-.075-.054l.109-.344-.291-.215a.049.049,0,0,1,.029-.088l.361,0,.114-.343A.049.049,0,0,1,86.249,123.031Z" transform="translate(-81.458 -122.118)" fill="#f5f5f5"/>
      <path id="Path_26" data-name="Path 26" d="M86.249,153.685l.114.343.361,0a.049.049,0,0,1,.029.088l-.291.215.109.344a.049.049,0,0,1-.075.054l-.294-.21-.294.21a.049.049,0,0,1-.075-.054l.109-.344-.291-.215a.049.049,0,0,1,.029-.088l.361,0,.114-.343A.049.049,0,0,1,86.249,153.685Z" transform="translate(-81.458 -150.98)" fill="#f5f5f5"/>
      <path id="Path_27" data-name="Path 27" d="M86.249,184.339l.114.343.361,0a.049.049,0,0,1,.029.088l-.291.215.109.344a.049.049,0,0,1-.075.054l-.294-.21-.294.21a.049.049,0,0,1-.075-.054l.109-.344-.291-.215a.049.049,0,0,1,.029-.088l.361,0,.114-.343A.049.049,0,0,1,86.249,184.339Z" transform="translate(-81.458 -179.841)" fill="#f5f5f5"/>
      <path id="Path_28" data-name="Path 28" d="M86.249,214.994l.114.343.361,0a.049.049,0,0,1,.029.088l-.291.215.109.344a.049.049,0,0,1-.075.054l-.294-.21-.294.21a.049.049,0,0,1-.075-.054l.109-.344-.291-.215a.049.049,0,0,1,.029-.088l.361,0,.114-.343A.049.049,0,0,1,86.249,214.994Z" transform="translate(-81.458 -208.702)" fill="#f5f5f5"/>
      <path id="Path_29" data-name="Path 29" d="M110.041,108l.114.343.361,0a.049.049,0,0,1,.029.088l-.291.215.109.344a.049.049,0,0,1-.075.054l-.294-.21-.294.21a.049.049,0,0,1-.075-.054l.109-.344-.291-.215a.049.049,0,0,1,.029-.088l.361,0,.114-.343A.049.049,0,0,1,110.041,108Z" transform="translate(-103.858 -107.968)" fill="#f5f5f5"/>
      <path id="Path_30" data-name="Path 30" d="M110.041,138.656l.114.343.361,0a.049.049,0,0,1,.029.088l-.291.215.109.344a.049.049,0,0,1-.075.054l-.294-.21-.294.21a.049.049,0,0,1-.075-.054l.109-.344-.291-.215a.049.049,0,0,1,.029-.088l.361,0,.114-.343A.049.049,0,0,1,110.041,138.656Z" transform="translate(-103.858 -136.829)" fill="#f5f5f5"/>
      <path id="Path_31" data-name="Path 31" d="M110.041,169.31l.114.343.361,0a.049.049,0,0,1,.029.088l-.291.215.109.344a.049.049,0,0,1-.075.054l-.294-.21-.294.21a.049.049,0,0,1-.075-.054l.109-.344-.291-.215a.049.049,0,0,1,.029-.088l.361,0,.114-.343A.049.049,0,0,1,110.041,169.31Z" transform="translate(-103.858 -165.691)" fill="#f5f5f5"/>
      <path id="Path_32" data-name="Path 32" d="M110.041,199.964l.114.343.361,0a.049.049,0,0,1,.029.088l-.291.215.109.344a.049.049,0,0,1-.075.054l-.294-.21-.294.21a.049.049,0,0,1-.075-.054l.109-.344-.291-.215a.049.049,0,0,1,.029-.088l.361,0,.114-.343A.049.049,0,0,1,110.041,199.964Z" transform="translate(-103.858 -194.552)" fill="#f5f5f5"/>
      <path id="Path_33" data-name="Path 33" d="M110.041,230.619l.114.343.361,0a.049.049,0,0,1,.029.088l-.291.215.109.344a.049.049,0,0,1-.075.054l-.294-.21-.294.21a.049.049,0,0,1-.075-.054l.109-.344-.291-.215a.049.049,0,0,1,.029-.088l.361,0,.114-.343A.049.049,0,0,1,110.041,230.619Z" transform="translate(-103.858 -223.413)" fill="#f5f5f5"/>
      <path id="Path_34" data-name="Path 34" d="M133.835,123.031l.114.343.361,0a.049.049,0,0,1,.029.088l-.291.215.109.344a.049.049,0,0,1-.075.054l-.294-.21-.294.21a.049.049,0,0,1-.075-.054l.109-.344-.291-.215a.049.049,0,0,1,.029-.088l.361,0,.114-.343A.049.049,0,0,1,133.835,123.031Z" transform="translate(-126.26 -122.118)" fill="#f5f5f5"/>
      <path id="Path_35" data-name="Path 35" d="M133.835,153.685l.114.343.361,0a.049.049,0,0,1,.029.088l-.291.215.109.344a.049.049,0,0,1-.075.054l-.294-.21-.294.21a.049.049,0,0,1-.075-.054l.109-.344-.291-.215a.049.049,0,0,1,.029-.088l.361,0,.114-.343A.049.049,0,0,1,133.835,153.685Z" transform="translate(-126.26 -150.98)" fill="#f5f5f5"/>
      <path id="Path_36" data-name="Path 36" d="M133.835,184.339l.114.343.361,0a.049.049,0,0,1,.029.088l-.291.215.109.344a.049.049,0,0,1-.075.054l-.294-.21-.294.21a.049.049,0,0,1-.075-.054l.109-.344-.291-.215a.049.049,0,0,1,.029-.088l.361,0,.114-.343A.049.049,0,0,1,133.835,184.339Z" transform="translate(-126.26 -179.841)" fill="#f5f5f5"/>
      <path id="Path_37" data-name="Path 37" d="M133.835,214.994l.114.343.361,0a.049.049,0,0,1,.029.088l-.291.215.109.344a.049.049,0,0,1-.075.054l-.294-.21-.294.21a.049.049,0,0,1-.075-.054l.109-.344-.291-.215a.049.049,0,0,1,.029-.088l.361,0,.114-.343A.049.049,0,0,1,133.835,214.994Z" transform="translate(-126.26 -208.702)" fill="#f5f5f5"/>
      <path id="Path_38" data-name="Path 38" d="M157.629,108l.114.343.361,0a.049.049,0,0,1,.029.088l-.291.215.109.344a.049.049,0,0,1-.075.054l-.294-.21-.294.21a.049.049,0,0,1-.075-.054l.109-.344-.291-.215a.049.049,0,0,1,.029-.088l.361,0,.114-.343A.049.049,0,0,1,157.629,108Z" transform="translate(-148.662 -107.968)" fill="#f5f5f5"/>
      <path id="Path_39" data-name="Path 39" d="M157.629,138.656l.114.343.361,0a.049.049,0,0,1,.029.088l-.291.215.109.344a.049.049,0,0,1-.075.054l-.294-.21-.294.21a.049.049,0,0,1-.075-.054l.109-.344-.291-.215a.049.049,0,0,1,.029-.088l.361,0,.114-.343A.049.049,0,0,1,157.629,138.656Z" transform="translate(-148.662 -136.829)" fill="#f5f5f5"/>
      <path id="Path_40" data-name="Path 40" d="M157.629,169.31l.114.343.361,0a.049.049,0,0,1,.029.088l-.291.215.109.344a.049.049,0,0,1-.075.054l-.294-.21-.294.21a.049.049,0,0,1-.075-.054l.109-.344-.291-.215a.049.049,0,0,1,.029-.088l.361,0,.114-.343A.049.049,0,0,1,157.629,169.31Z" transform="translate(-148.662 -165.691)" fill="#f5f5f5"/>
      <path id="Path_41" data-name="Path 41" d="M157.629,199.964l.114.343.361,0a.049.049,0,0,1,.029.088l-.291.215.109.344a.049.049,0,0,1-.075.054l-.294-.21-.294.21a.049.049,0,0,1-.075-.054l.109-.344-.291-.215a.049.049,0,0,1,.029-.088l.361,0,.114-.343A.049.049,0,0,1,157.629,199.964Z" transform="translate(-148.662 -194.552)" fill="#f5f5f5"/>
      <path id="Path_42" data-name="Path 42" d="M157.629,230.619l.114.343.361,0a.049.049,0,0,1,.029.088l-.291.215.109.344a.049.049,0,0,1-.075.054l-.294-.21-.294.21a.049.049,0,0,1-.075-.054l.109-.344-.291-.215a.049.049,0,0,1,.029-.088l.361,0,.114-.343A.049.049,0,0,1,157.629,230.619Z" transform="translate(-148.662 -223.413)" fill="#f5f5f5"/>
      <path id="Path_43" data-name="Path 43" d="M181.422,123.031l.114.343.361,0a.049.049,0,0,1,.029.088l-.291.215.109.344a.049.049,0,0,1-.075.054l-.294-.21-.294.21a.049.049,0,0,1-.075-.054l.109-.344-.291-.215a.049.049,0,0,1,.029-.088l.361,0,.114-.343A.049.049,0,0,1,181.422,123.031Z" transform="translate(-171.064 -122.118)" fill="#f5f5f5"/>
      <path id="Path_44" data-name="Path 44" d="M181.422,153.685l.114.343.361,0a.049.049,0,0,1,.029.088l-.291.215.109.344a.049.049,0,0,1-.075.054l-.294-.21-.294.21a.049.049,0,0,1-.075-.054l.109-.344-.291-.215a.049.049,0,0,1,.029-.088l.361,0,.114-.343A.049.049,0,0,1,181.422,153.685Z" transform="translate(-171.064 -150.98)" fill="#f5f5f5"/>
      <path id="Path_45" data-name="Path 45" d="M181.422,184.339l.114.343.361,0a.049.049,0,0,1,.029.088l-.291.215.109.344a.049.049,0,0,1-.075.054l-.294-.21-.294.21a.049.049,0,0,1-.075-.054l.109-.344-.291-.215a.049.049,0,0,1,.029-.088l.361,0,.114-.343A.049.049,0,0,1,181.422,184.339Z" transform="translate(-171.064 -179.841)" fill="#f5f5f5"/>
      <path id="Path_46" data-name="Path 46" d="M181.422,214.994l.114.343.361,0a.049.049,0,0,1,.029.088l-.291.215.109.344a.049.049,0,0,1-.075.054l-.294-.21-.294.21a.049.049,0,0,1-.075-.054l.109-.344-.291-.215a.049.049,0,0,1,.029-.088l.361,0,.114-.343A.049.049,0,0,1,181.422,214.994Z" transform="translate(-171.064 -208.702)" fill="#f5f5f5"/>
      <path id="Path_47" data-name="Path 47" d="M205.216,108l.114.343.361,0a.049.049,0,0,1,.029.088l-.291.215.109.344a.049.049,0,0,1-.075.054l-.294-.21-.294.21a.049.049,0,0,1-.075-.054l.109-.344-.291-.215a.049.049,0,0,1,.029-.088l.361,0,.114-.343A.049.049,0,0,1,205.216,108Z" transform="translate(-193.466 -107.968)" fill="#f5f5f5"/>
      <path id="Path_48" data-name="Path 48" d="M205.216,138.656l.114.343.361,0a.049.049,0,0,1,.029.088l-.291.215.109.344a.049.049,0,0,1-.075.054l-.294-.21-.294.21a.049.049,0,0,1-.075-.054l.109-.344-.291-.215a.049.049,0,0,1,.029-.088l.361,0,.114-.343A.049.049,0,0,1,205.216,138.656Z" transform="translate(-193.466 -136.829)" fill="#f5f5f5"/>
      <path id="Path_49" data-name="Path 49" d="M205.216,169.31l.114.343.361,0a.049.049,0,0,1,.029.088l-.291.215.109.344a.049.049,0,0,1-.075.054l-.294-.21-.294.21a.049.049,0,0,1-.075-.054l.109-.344-.291-.215a.049.049,0,0,1,.029-.088l.361,0,.114-.343A.049.049,0,0,1,205.216,169.31Z" transform="translate(-193.466 -165.691)" fill="#f5f5f5"/>
      <path id="Path_50" data-name="Path 50" d="M205.216,199.964l.114.343.361,0a.049.049,0,0,1,.029.088l-.291.215.109.344a.049.049,0,0,1-.075.054l-.294-.21-.294.21a.049.049,0,0,1-.075-.054l.109-.344-.291-.215a.049.049,0,0,1,.029-.088l.361,0,.114-.343A.049.049,0,0,1,205.216,199.964Z" transform="translate(-193.466 -194.552)" fill="#f5f5f5"/>
      <path id="Path_51" data-name="Path 51" d="M205.216,230.619l.114.343.361,0a.049.049,0,0,1,.029.088l-.291.215.109.344a.049.049,0,0,1-.075.054l-.294-.21-.294.21a.049.049,0,0,1-.075-.054l.109-.344-.291-.215a.049.049,0,0,1,.029-.088l.361,0,.114-.343A.049.049,0,0,1,205.216,230.619Z" transform="translate(-193.466 -223.413)" fill="#f5f5f5"/>
    </g>
  </g>
</svg>
