<svg xmlns="http://www.w3.org/2000/svg" width="19.965" height="19.965" viewBox="0 0 19.965 19.965">
  <g id="verified_2_" data-name="verified (2)" transform="translate(0 0)">
    <path id="Path_362" data-name="Path 362" d="M9.983,19.965a3.438,3.438,0,0,1-2.354-1.392,3.594,3.594,0,0,0-.886-.773,3.77,3.77,0,0,0-1.254-.1A3.431,3.431,0,0,1,2.9,17.039a3.319,3.319,0,0,1-.644-2.583,3.725,3.725,0,0,0-.1-1.254,3.594,3.594,0,0,0-.773-.886A3.4,3.4,0,0,1,0,9.983,3.494,3.494,0,0,1,1.388,7.629a3.6,3.6,0,0,0,.773-.886,3.727,3.727,0,0,0,.1-1.254,3.421,3.421,0,0,1,.665-2.583A3.357,3.357,0,0,1,5.51,2.241a3.715,3.715,0,0,0,1.254-.1,3.6,3.6,0,0,0,.886-.773A3.445,3.445,0,0,1,9.983,0a3.483,3.483,0,0,1,2.354,1.392,3.594,3.594,0,0,0,.886.773,3.727,3.727,0,0,0,1.254.1,3.431,3.431,0,0,1,2.588.665,3.335,3.335,0,0,1,.665,2.583,3.725,3.725,0,0,0,.1,1.254,3.594,3.594,0,0,0,.773.886,3.456,3.456,0,0,1,1.367,2.333,3.494,3.494,0,0,1-1.388,2.354,3.594,3.594,0,0,0-.773.886,3.727,3.727,0,0,0-.1,1.254,3.421,3.421,0,0,1-.665,2.583,3.357,3.357,0,0,1-2.588.665,3.705,3.705,0,0,0-1.254.1,3.6,3.6,0,0,0-.886.773A3.445,3.445,0,0,1,9.983,19.965ZM5.894,15.973A3.9,3.9,0,0,1,7.4,16.2a4.6,4.6,0,0,1,1.471,1.175c.364.38.836.857,1.1.857s.74-.477,1.1-.857A4.6,4.6,0,0,1,12.553,16.2a4.775,4.775,0,0,1,1.927-.226,3.061,3.061,0,0,0,1.334-.159c.18-.159.167-.836.159-1.334a4.774,4.774,0,0,1,.226-1.927,4.6,4.6,0,0,1,1.175-1.471c.38-.364.857-.836.857-1.1s-.477-.74-.857-1.1A4.6,4.6,0,0,1,16.2,7.408a4.768,4.768,0,0,1-.226-1.927,3.061,3.061,0,0,0-.159-1.334c-.159-.18-.836-.171-1.334-.159a4.783,4.783,0,0,1-1.927-.226,4.6,4.6,0,0,1-1.471-1.175c-.364-.38-.836-.857-1.1-.857s-.74.477-1.1.857A4.6,4.6,0,0,1,7.4,3.762a4.783,4.783,0,0,1-1.927.226,3.061,3.061,0,0,0-1.334.159c-.18.159-.167.836-.159,1.334a4.775,4.775,0,0,1-.226,1.927A4.6,4.6,0,0,1,2.583,8.879c-.38.364-.857.836-.857,1.1s.477.74.857,1.1a4.6,4.6,0,0,1,1.175,1.471,4.768,4.768,0,0,1,.226,1.927,3.061,3.061,0,0,0,.159,1.334c.159.18.836.167,1.334.159Z" transform="translate(0 0)" fill="#00c98e"/>
    <path id="Path_363" data-name="Path 363" d="M161.8,196.577a.862.862,0,0,1-.539-.188l-2.09-1.672a.862.862,0,1,1,1.079-1.346l1.488,1.191,3.215-3.215a.863.863,0,1,1,1.221,1.221l-3.762,3.762A.862.862,0,0,1,161.8,196.577Z" transform="translate(-152.65 -183.643)" fill="#00c98e"/>
  </g>
</svg>
