<svg xmlns="http://www.w3.org/2000/svg" width="32" height="32.001" viewBox="0 0 32 32.001">
  <g id="zrx" transform="translate(0 -0.001)">
    <path id="Path_443" data-name="Path 443" d="M789.3,98.219q.567.421,1.093.893a.539.539,0,1,0,.721-.8c-.374-.336-.768-.658-1.171-.957a.539.539,0,1,0-.642.866Z" transform="translate(-764.422 -94.207)" fill="#333"/>
    <path id="Path_444" data-name="Path 444" d="M29.451,7.34a.539.539,0,1,0-.906.585,14.9,14.9,0,1,1-7.335-5.9.539.539,0,0,0,.377-1.011,16,16,0,1,0,7.864,6.33Z" transform="translate(0 0)" fill="#333"/>
    <path id="Path_445" data-name="Path 445" d="M171.19,162.493c-.563.539-1.148,1.057-1.838,1.726,1.234,1.682,3.665,4.777,5.042,6.77a11.216,11.216,0,0,0-2.483-14.106c-.968.661-2.409,1.657-3.4,2.393a7.159,7.159,0,0,1,2.674,3.217Zm-9.538-3.639c.559.559,1.1,1.141,1.8,1.833,1.732-1.247,4.8-3.6,6.813-4.966a11.216,11.216,0,0,0-14.187,2.484c.67.935,1.709,2.373,2.471,3.346A7.016,7.016,0,0,1,161.652,158.854Zm11.614,13.757c-.659-.945-1.668-2.373-2.409-3.343a7.023,7.023,0,0,1-3.134,2.66c-.582-.6-1.14-1.216-1.892-1.966-1.746,1.33-4.812,3.811-6.763,5.193a11.216,11.216,0,0,0,14.2-2.544Zm-19.826-7.18a11.188,11.188,0,0,0,3.992,8.578c.95-.683,2.425-1.758,3.421-2.543a7.15,7.15,0,0,1-2.755-3.148c.579-.583,1.182-1.142,1.9-1.884-1.3-1.714-3.7-4.7-5.052-6.623a11.161,11.161,0,0,0-1.508,5.62Z" transform="translate(-148.646 -149.397)" fill="#333"/>
  </g>
</svg>
