<svg id="_1490834" data-name="1490834" xmlns="http://www.w3.org/2000/svg" width="35" height="35" viewBox="0 0 35 35">
  <g id="Group_401" data-name="Group 401">
    <path id="Path_415" data-name="Path 415" d="M35,17.5A17.532,17.532,0,1,1,29.347,4.621,17.5,17.5,0,0,1,35,17.5Z" fill="#f0cd00"/>
    <path id="Path_416" data-name="Path 416" d="M51.937,17.658A17.5,17.5,0,0,1,35.089,35.146a17.5,17.5,0,0,1,0-34.976A17.5,17.5,0,0,1,51.937,17.658Z" transform="translate(-16.937 -0.158)" fill="#ffde50"/>
    <path id="Path_417" data-name="Path 417" d="M60.6,35.886,35.876,60.613a17.575,17.575,0,0,1-2.216-2.989L57.614,33.67A17.494,17.494,0,0,1,60.6,35.886Z" transform="translate(-31.256 -31.265)" fill="#ffea94"/>
    <path id="Path_418" data-name="Path 418" d="M120.512,97.821,97.821,120.513a17.476,17.476,0,0,1-4.431-2.546L117.967,93.39A17.445,17.445,0,0,1,120.512,97.821Z" transform="translate(-86.719 -86.719)" fill="#ffea94"/>
    <path id="Path_419" data-name="Path 419" d="M81.817,68.219a13.6,13.6,0,0,1-27.2.167c0-.056,0-.111,0-.167a13.6,13.6,0,0,1,13.6-13.6h.168a13.535,13.535,0,0,1,7.666,2.48A13.689,13.689,0,0,1,79.8,61.086,13.533,13.533,0,0,1,81.817,68.219Z" transform="translate(-50.719 -50.719)" fill="#faa300"/>
    <path id="Path_420" data-name="Path 420" d="M77.834,58.6,58.6,77.834a13.549,13.549,0,0,1-3.981-9.448c0-.056,0-.111,0-.167a13.6,13.6,0,0,1,13.6-13.6h.168a13.535,13.535,0,0,1,7.666,2.48A13.724,13.724,0,0,1,77.834,58.6Z" transform="translate(-50.719 -50.719)" fill="#ffbd00"/>
    <path id="Path_421" data-name="Path 421" d="M248.611,68.219a13.6,13.6,0,0,1-13.6,13.6q-.387,0-.768-.021a13.6,13.6,0,0,0,0-27.154q.381-.021.768-.021A13.6,13.6,0,0,1,248.611,68.219Z" transform="translate(-217.513 -50.719)" fill="#f68e00"/>
  </g>
  <path id="Path_422" data-name="Path 422" d="M148.458,97.885a5.543,5.543,0,0,0-2.239-4.45,5.139,5.139,0,0,0-3.238-8.489V83.855a1.429,1.429,0,1,0-2.857,0v1.051h-3.413a1.429,1.429,0,0,0-1.429,1.429V102a1.429,1.429,0,0,0,1.429,1.429h3.413v1.051a1.429,1.429,0,1,0,2.857,0v-1.052A5.553,5.553,0,0,0,148.458,97.885Zm-3.821-7.835a2.291,2.291,0,0,1-1.656,2.2v-4.4A2.291,2.291,0,0,1,144.637,90.05Zm-6.5-2.288h1.984v4.575h-1.984Zm0,12.813V95.195h1.984v5.381Zm4.841,0V95.2a2.689,2.689,0,0,1,0,5.377Z" transform="translate(-125.619 -76.538)" fill="#f68e00"/>
  <path id="Path_423" data-name="Path 423" d="M173.46,97.885a5.543,5.543,0,0,0-2.239-4.45,5.139,5.139,0,0,0-3.238-8.489V83.855a1.429,1.429,0,0,0-2.857,0v1.051h-3.413a1.429,1.429,0,0,0-1.429,1.429V102a1.429,1.429,0,0,0,1.429,1.429h3.413v1.051a1.429,1.429,0,1,0,2.857,0v-1.052A5.553,5.553,0,0,0,173.46,97.885Zm-3.821-7.835a2.291,2.291,0,0,1-1.656,2.2v-4.4A2.291,2.291,0,0,1,169.639,90.05Zm-6.5-2.288h1.984v4.575h-1.984Zm0,12.813V95.195h1.984v5.381Zm4.841,0V95.2a2.689,2.689,0,0,1,0,5.377Z" transform="translate(-148.835 -76.538)" fill="#ffea94"/>
</svg>
