<svg xmlns="http://www.w3.org/2000/svg" width="12.284" height="17" viewBox="0 0 12.284 17">
  <g id="bitcoin-logo" transform="translate(-65.893)">
    <path id="Path_55" data-name="Path 55" d="M77.693,8.919a3.068,3.068,0,0,0-1.788-1.052A2.422,2.422,0,0,0,77.244,5.23a2.605,2.605,0,0,0-.373-1.169,2.341,2.341,0,0,0-.843-.8,4.64,4.64,0,0,0-1.155-.46,9.109,9.109,0,0,0-1.43-.23V0H71.87V2.5q-.409,0-1.246.02V0H69.05V2.575q-.337.01-.991.01l-2.166-.01V4.25h1.134a.812.812,0,0,1,.909.695V7.877a1.038,1.038,0,0,1,.164.01h-.164v4.107a.546.546,0,0,1-.593.521H66.21l-.317,1.87h2.043q.194,0,.562,0t.552.005V17h1.574V14.425q.429.01,1.246.01V17h1.573V14.395a12.231,12.231,0,0,0,1.486-.153,6.049,6.049,0,0,0,1.241-.353,3.35,3.35,0,0,0,.991-.6,2.821,2.821,0,0,0,.659-.909,3.865,3.865,0,0,0,.332-1.277A3.027,3.027,0,0,0,77.693,8.919ZM70.654,4.362l.4-.005.552-.01q.22-.005.593.026a5.637,5.637,0,0,1,.628.082,3.5,3.5,0,0,1,.562.169,1.523,1.523,0,0,1,.49.286,1.419,1.419,0,0,1,.312.429,1.339,1.339,0,0,1,.128.6,1.421,1.421,0,0,1-.092.521.982.982,0,0,1-.276.393,2.794,2.794,0,0,1-.378.276,1.731,1.731,0,0,1-.5.189q-.3.072-.526.112a4.307,4.307,0,0,1-.562.056q-.337.015-.511.02t-.475,0L70.654,7.5V4.362h0Zm4.3,6.957a1.453,1.453,0,0,1-.25.409,1.419,1.419,0,0,1-.4.306,3.462,3.462,0,0,1-.485.215,3.906,3.906,0,0,1-.567.143q-.332.061-.583.087t-.6.041q-.347.015-.541.015t-.49-.005l-.378,0V9.072q.082,0,.485-.01t.659-.01q.255,0,.705.031a6.024,6.024,0,0,1,.756.092,4.97,4.97,0,0,1,.669.189,1.94,1.94,0,0,1,.588.312,1.533,1.533,0,0,1,.378.47,1.459,1.459,0,0,1,.056,1.175Z" fill="#171717"/>
  </g>
</svg>
