<svg xmlns="http://www.w3.org/2000/svg" width="12.88" height="14.081" viewBox="0 0 12.88 14.081">
  <g id="kucoin-shares" transform="translate(0 0.001)">
    <path id="Path_65" data-name="Path 65" d="M10.839,8.573,8.2,11.2,3.989,7.033l4.2-4.16,2.647,2.634a1.2,1.2,0,1,0,1.689-1.7L9.049.347a1.2,1.2,0,0,0-1.693,0s-.085.071-.122.108L2.394,5.247V2.385A1.2,1.2,0,0,0,0,2.385v9.3a1.2,1.2,0,1,0,2.394,0V8.818l4.841,4.789.122.122a1.2,1.2,0,0,0,1.693,0l3.479-3.463a1.2,1.2,0,1,0-1.689-1.7Z" transform="translate(0 0)" fill="#0097e8"/>
    <circle id="Ellipse_6" data-name="Ellipse 6" cx="1.207" cy="1.207" r="1.207" transform="translate(7.005 5.834)" fill="#0097e8"/>
  </g>
</svg>
