<svg id="rupee" xmlns="http://www.w3.org/2000/svg" width="35" height="35" viewBox="0 0 35 35">
  <g id="Group_403" data-name="Group 403" transform="translate(0)">
    <path id="Path_433" data-name="Path 433" d="M35,17.5A17.532,17.532,0,1,1,29.347,4.621,17.5,17.5,0,0,1,35,17.5Z" transform="translate(0)" fill="#f0cd00"/>
    <path id="Path_434" data-name="Path 434" d="M51.937,17.658A17.5,17.5,0,0,1,35.089,35.146a17.5,17.5,0,0,1,0-34.976A17.5,17.5,0,0,1,51.937,17.658Z" transform="translate(-16.937 -0.158)" fill="#ffde50"/>
    <path id="Path_435" data-name="Path 435" d="M60.6,35.886,35.876,60.613a17.575,17.575,0,0,1-2.216-2.989L57.614,33.67A17.494,17.494,0,0,1,60.6,35.886Z" transform="translate(-31.256 -31.265)" fill="#ffea94"/>
    <path id="Path_436" data-name="Path 436" d="M120.512,97.821,97.821,120.513a17.477,17.477,0,0,1-4.431-2.546L117.967,93.39A17.445,17.445,0,0,1,120.512,97.821Z" transform="translate(-86.719 -86.719)" fill="#ffea94"/>
    <path id="Path_437" data-name="Path 437" d="M81.817,68.219a13.6,13.6,0,0,1-27.2.167c0-.056,0-.111,0-.167a13.6,13.6,0,0,1,13.6-13.6h.168a13.535,13.535,0,0,1,7.666,2.48A13.689,13.689,0,0,1,79.8,61.086,13.533,13.533,0,0,1,81.817,68.219Z" transform="translate(-50.719 -50.719)" fill="#faa300"/>
    <path id="Path_438" data-name="Path 438" d="M77.834,58.6,58.6,77.834a13.549,13.549,0,0,1-3.981-9.448c0-.056,0-.111,0-.167a13.6,13.6,0,0,1,13.6-13.6h.168a13.535,13.535,0,0,1,7.666,2.48A13.723,13.723,0,0,1,77.834,58.6Z" transform="translate(-50.719 -50.719)" fill="#ffbd00"/>
    <path id="Path_439" data-name="Path 439" d="M248.611,68.219a13.6,13.6,0,0,1-13.6,13.6q-.387,0-.768-.021a13.6,13.6,0,0,0,0-27.154q.381-.021.768-.021A13.6,13.6,0,0,1,248.611,68.219Z" transform="translate(-217.513 -50.719)" fill="#f68e00"/>
  </g>
  <path id="Path_440" data-name="Path 440" d="M126.605,130.121h-2.381a5.745,5.745,0,0,0-.618-1.5h3a1.429,1.429,0,0,0,0-2.857h-13.5a1.429,1.429,0,0,0,0,2.857h5.514a2.925,2.925,0,0,1,2.549,1.5h-8.063a1.429,1.429,0,0,0,0,2.857h8.063a2.925,2.925,0,0,1-2.549,1.495h-5.514a1.429,1.429,0,0,0-1.04,2.408l7.769,8.247a1.429,1.429,0,0,0,2.08-1.959l-5.5-5.838h2.205a5.791,5.791,0,0,0,5.6-4.352h2.381a1.429,1.429,0,0,0,0-2.857Z" transform="translate(-103.703 -116.786)" fill="#f68e00"/>
  <path id="Path_441" data-name="Path 441" d="M151.607,130.121h-2.381a5.746,5.746,0,0,0-.618-1.5h3a1.429,1.429,0,1,0,0-2.857h-13.5a1.429,1.429,0,1,0,0,2.857h5.514a2.925,2.925,0,0,1,2.549,1.5h-8.063a1.429,1.429,0,1,0,0,2.857h8.063a2.925,2.925,0,0,1-2.549,1.495h-5.514a1.429,1.429,0,0,0-1.04,2.408l7.769,8.247a1.429,1.429,0,0,0,2.08-1.959l-5.5-5.838h2.205a5.791,5.791,0,0,0,5.6-4.352h2.381a1.429,1.429,0,1,0,0-2.857Z" transform="translate(-126.919 -116.786)" fill="#ffea94"/>
</svg>
