<svg xmlns="http://www.w3.org/2000/svg" width="16.019" height="15.351" viewBox="0 0 16.019 15.351">
  <path id="star" d="M3.586,15.843a.853.853,0,0,1-.83-1.041l1.031-4.539L.292,7.2a.852.852,0,0,1,.483-1.49L5.4,5.288,7.227,1.01a.851.851,0,0,1,1.566,0l1.828,4.279,4.623.42a.852.852,0,0,1,.484,1.49l-3.495,3.064L13.264,14.8a.851.851,0,0,1-1.267.92L8.01,13.338,4.022,15.723a.853.853,0,0,1-.437.121ZM8.01,12.312a.853.853,0,0,1,.437.121l3.763,2.251L11.237,10.4a.851.851,0,0,1,.27-.83l3.3-2.894-4.366-.4a.85.85,0,0,1-.708-.516L8.01,1.725,6.284,5.763a.848.848,0,0,1-.705.514l-4.367.4,3.3,2.894a.85.85,0,0,1,.27.83L3.81,14.683l3.763-2.25a.853.853,0,0,1,.437-.121ZM5.363,5.371h0Zm5.292,0h0Zm0,0" transform="translate(-0.001 -0.492)" fill="#6b6b6b" opacity="0.43"/>
</svg>
