<svg id="yen" xmlns="http://www.w3.org/2000/svg" width="35" height="35" viewBox="0 0 35 35">
  <g id="Group_402" data-name="Group 402">
    <path id="Path_424" data-name="Path 424" d="M35,17.5A17.532,17.532,0,1,1,29.347,4.621,17.5,17.5,0,0,1,35,17.5Z" fill="#f0cd00"/>
    <path id="Path_425" data-name="Path 425" d="M51.863,17.657A17.481,17.481,0,0,1,35.051,35.144a17.5,17.5,0,0,1,0-34.974A17.481,17.481,0,0,1,51.863,17.657Z" transform="translate(-16.863 -0.157)" fill="#ffde50"/>
    <path id="Path_426" data-name="Path 426" d="M61.142,35.931,35.921,61.152A17.927,17.927,0,0,1,33.66,58.1L58.094,33.67A17.845,17.845,0,0,1,61.142,35.931Z" transform="translate(-31.118 -31.128)" fill="#ffea94"/>
    <path id="Path_427" data-name="Path 427" d="M122.062,98.075,98.074,122.063a18.475,18.475,0,0,1-4.684-2.691L119.372,93.39A18.442,18.442,0,0,1,122.062,98.075Z" transform="translate(-88.338 -88.338)" fill="#ffea94"/>
    <path id="Path_428" data-name="Path 428" d="M81.371,68a13.375,13.375,0,0,1-26.75.164c0-.055,0-.11,0-.164A13.376,13.376,0,0,1,68,54.62h.165a13.313,13.313,0,0,1,7.54,2.439,13.465,13.465,0,0,1,3.685,3.92A13.311,13.311,0,0,1,81.371,68Z" transform="translate(-50.496 -50.496)" fill="#faa300"/>
    <path id="Path_429" data-name="Path 429" d="M79.16,58.83,58.83,79.16a14.323,14.323,0,0,1-4.209-9.988c0-.059,0-.118,0-.177A14.376,14.376,0,0,1,69,54.62c.059,0,.119,0,.177,0a14.309,14.309,0,0,1,8.1,2.622A14.507,14.507,0,0,1,79.16,58.83Z" transform="translate(-50.496 -50.496)" fill="#ffbd00"/>
    <path id="Path_430" data-name="Path 430" d="M249.432,68c0,7.387-6.436,13.376-14.376,13.376q-.409,0-.812-.021c7.562-.391,13.563-6.221,13.563-13.355s-6-12.963-13.563-13.355q.4-.021.812-.021C243,54.62,249.432,60.609,249.432,68Z" transform="translate(-218.557 -50.496)" fill="#f68e00"/>
  </g>
  <path id="Path_431" data-name="Path 431" d="M131.808,108.7a1.51,1.51,0,0,0-2.115.3l-5.074,6.725-5.074-6.725a1.51,1.51,0,0,0-2.411,1.819l5.05,6.693h-2.866a1.51,1.51,0,1,0,0,3.02h3.791v2.266h-3.791a1.51,1.51,0,1,0,0,3.02h3.791v3.356a1.51,1.51,0,0,0,3.02,0v-3.356h3.791a1.51,1.51,0,0,0,0-3.02h-3.791v-2.266h3.791a1.51,1.51,0,0,0,0-3.02h-2.866l5.05-6.693A1.51,1.51,0,0,0,131.808,108.7Z" transform="translate(-108.831 -101.32)" fill="#f68e00"/>
  <path id="Path_432" data-name="Path 432" d="M156.81,108.7a1.51,1.51,0,0,0-2.115.3l-5.074,6.725-5.074-6.725a1.51,1.51,0,1,0-2.411,1.819l5.05,6.693h-2.866a1.51,1.51,0,0,0,0,3.02h3.791v2.266h-3.791a1.51,1.51,0,0,0,0,3.02h3.791v3.356a1.51,1.51,0,0,0,3.02,0v-3.356h3.791a1.51,1.51,0,1,0,0-3.02h-3.791v-2.266h3.791a1.51,1.51,0,1,0,0-3.02h-2.866l5.05-6.693A1.51,1.51,0,0,0,156.81,108.7Z" transform="translate(-132.121 -101.32)" fill="#ffea94"/>
</svg>
